<mxfile host="app.diagrams.net" modified="2021-01-14T16:36:06.086Z" agent="5.0 (Windows NT 10.0; Win64; x64) AppleWebKit/537.36 (KHTML, like Gecko) Chrome/87.0.4280.141 Safari/537.36" etag="BxRx-YxFmsoMIzM9PnLP" version="14.2.3" type="github">
  <diagram id="rk_fh5AHMHldXPO9rmmu" name="ページ1">
    <mxGraphModel dx="1896" dy="1059" grid="0" gridSize="10" guides="1" tooltips="1" connect="1" arrows="1" fold="1" page="1" pageScale="1" pageWidth="1390" pageHeight="980" background="#ffffff" math="0" shadow="0">
      <root>
        <mxCell id="0" />
        <mxCell id="1" parent="0" />
        <mxCell id="KMc_ISXuQFN-_KLATee0-72" value="" style="rounded=1;whiteSpace=wrap;html=1;labelBackgroundColor=#99CCFF;fillColor=#dae8fc;strokeColor=#6c8ebf;" vertex="1" parent="1">
          <mxGeometry x="604" y="528" width="719" height="400" as="geometry" />
        </mxCell>
        <mxCell id="KMc_ISXuQFN-_KLATee0-10" value="" style="rounded=1;whiteSpace=wrap;html=1;" vertex="1" parent="1">
          <mxGeometry x="637.6" y="61" width="681.8" height="429" as="geometry" />
        </mxCell>
        <mxCell id="KMc_ISXuQFN-_KLATee0-1" value="" style="points=[];aspect=fixed;html=1;align=center;shadow=0;dashed=0;image;image=img/lib/allied_telesis/computer_and_terminals/Personal_Computer_with_Server.svg;" vertex="1" parent="1">
          <mxGeometry x="143" y="459" width="62.400000000000006" height="62.400000000000006" as="geometry" />
        </mxCell>
        <mxCell id="KMc_ISXuQFN-_KLATee0-2" value="" style="points=[];aspect=fixed;html=1;align=center;shadow=0;dashed=0;image;image=img/lib/allied_telesis/computer_and_terminals/Personal_Computer_with_Server.svg;" vertex="1" parent="1">
          <mxGeometry x="139" y="791" width="62.400000000000006" height="62.400000000000006" as="geometry" />
        </mxCell>
        <mxCell id="KMc_ISXuQFN-_KLATee0-3" value="" style="points=[];aspect=fixed;html=1;align=center;shadow=0;dashed=0;image;image=img/lib/allied_telesis/computer_and_terminals/Server_Desktop.svg;" vertex="1" parent="1">
          <mxGeometry x="385" y="463" width="42.599999999999994" height="54" as="geometry" />
        </mxCell>
        <mxCell id="KMc_ISXuQFN-_KLATee0-58" style="edgeStyle=orthogonalEdgeStyle;rounded=0;orthogonalLoop=1;jettySize=auto;html=1;strokeWidth=3;fillColor=#fff2cc;strokeColor=#d6b656;" edge="1" parent="1">
          <mxGeometry relative="1" as="geometry">
            <mxPoint x="702" y="666" as="sourcePoint" />
            <mxPoint x="748" y="795" as="targetPoint" />
            <Array as="points">
              <mxPoint x="702" y="666" />
              <mxPoint x="702" y="795" />
            </Array>
          </mxGeometry>
        </mxCell>
        <mxCell id="KMc_ISXuQFN-_KLATee0-5" value="" style="points=[];aspect=fixed;html=1;align=center;shadow=0;dashed=0;image;image=img/lib/allied_telesis/computer_and_terminals/Server_Desktop.svg;" vertex="1" parent="1">
          <mxGeometry x="595" y="639" width="42.599999999999994" height="54" as="geometry" />
        </mxCell>
        <mxCell id="KMc_ISXuQFN-_KLATee0-8" value="" style="endArrow=classic;startArrow=classic;html=1;strokeWidth=3;" edge="1" parent="1">
          <mxGeometry width="50" height="50" relative="1" as="geometry">
            <mxPoint x="205.4" y="490" as="sourcePoint" />
            <mxPoint x="380" y="490" as="targetPoint" />
          </mxGeometry>
        </mxCell>
        <mxCell id="KMc_ISXuQFN-_KLATee0-12" value="" style="rounded=1;whiteSpace=wrap;html=1;fillColor=#dae8fc;strokeColor=#6c8ebf;" vertex="1" parent="1">
          <mxGeometry x="724.2" y="130" width="569.8" height="335" as="geometry" />
        </mxCell>
        <mxCell id="KMc_ISXuQFN-_KLATee0-13" value="" style="aspect=fixed;html=1;points=[];align=center;image;fontSize=12;image=img/lib/mscae/Docker.svg;fillColor=none;gradientColor=none;" vertex="1" parent="1">
          <mxGeometry x="1223" y="97" width="81" height="66.42" as="geometry" />
        </mxCell>
        <mxCell id="KMc_ISXuQFN-_KLATee0-14" value="" style="shape=image;html=1;verticalAlign=top;verticalLabelPosition=bottom;labelBackgroundColor=#ffffff;imageAspect=0;aspect=fixed;image=https://cdn4.iconfinder.com/data/icons/logos-brands-5/24/nginx-128.png;fillColor=none;gradientColor=none;" vertex="1" parent="1">
          <mxGeometry x="789" y="217" width="62" height="62" as="geometry" />
        </mxCell>
        <mxCell id="KMc_ISXuQFN-_KLATee0-26" value="" style="points=[];aspect=fixed;html=1;align=center;shadow=0;dashed=0;image;image=img/lib/allied_telesis/computer_and_terminals/Server_Desktop.svg;" vertex="1" parent="1">
          <mxGeometry x="595" y="221" width="42.599999999999994" height="54" as="geometry" />
        </mxCell>
        <mxCell id="KMc_ISXuQFN-_KLATee0-28" value="" style="shape=image;verticalLabelPosition=bottom;labelBackgroundColor=#ffffff;verticalAlign=top;aspect=fixed;imageAspect=0;image=data:image/png,iVBORw0KGgoAAAANSUhEUgAAAaYAAAB3CAMAAAB/uhQPAAAAwFBMVEX///9NTk5Il0dDRERJSkpAQUFKS0tGR0c9Pz/19fXt7e06Ozt/gIDo6eijpKRFlkQ/kz5VVlbe3t43kDaQk5G5urrJycldXl5iY2M0jzM3ODjZ2tlzqHLCwsJQUVHy8vLi7OLP38/r8utucG+JiopTnFLw9fDA18B3eHety63S0tJpampiomGWvpbU4dRtqGxcn1uWv5aio6OJt4mys7OhpKGmyKUuLy+60rp+sn4oiyaTl5OJjorH28dmbGeDs4MNdYtWAAAQ0klEQVR4nO1da2OqOBBVeYsUBJ+1Wlttr1X71m57vd37///VAnkNkCBWtO02Zz/sFYFgDjM5mZmklYqEhISEhISEhISEhISEhISEhISEhISEhISEhISExNfDzd9f15zD42M/h0Q+Ls9+v2WZWl698tiT+DyMH37XbsfJY/de4C6fX17f70KMLz/luSRSuFj+/r28uQNH3rxazfW8IEY/8Gr3t78kWZ+Oi7d+0L96vCCf/4Y0QbhuSNny5jMfUSLCxVUQUnF1i2zqOUUT4ip4kBb16XjxvNDR9WuPF9eVe5dDU+QH77bfpzTU5yfTSXM0GnUnf1bz8yO2/KVxeRvEQ1JQu+cZE+JpfKSHqa8mhqkYql6t6rpqaKY+Gx6p6S+P61vPi0ciAUsRT0cR6v5U0dRqEqqmP1nHaPwb4PI5EFkSgrc8/EP4M9uo8qCoK3jeTyZtfN/P5+n20E+wVgxqQPapbULKzEkrwnTamC2a60M/yZfGTb499d8P2/zMxJTo2mzoO868pQOiVANBVXWzhMFq3pq15vvf5lNwJh6bouHJPejwNFEIISPSf3V6LAFtsHdjm1NDNU6f9r7Pp4A7awJu7/mAbU8JI7rusKMz3lilOOLbFMMJMlx7tf3UL4h0DCKN4GL7PT6Ilc0loc6jabSvhPBJY8a3FCP5Ti90ew+HavlcpyydJL5oQJ4UO8Jpc9/WNsRy7c6+t/oMPGyhqRa8HKjlEzoIGfXEFx0TsHTiDyL4+7Y2IVMz5Vt6vS0kRcPTYYJ7VpNYk7pIfnNuA5o2JTX3vWmytgxNtYOpiDm1GWOa+gr4PHVSUnNT4knLkPZHRwGaDjR5atERSElPXWcwdlRScx1iotp3jOteQ5oEw9RhJk/U51W1duqrFtAQZlnCDM/HzG85cQLW5NYeAj5R3jKnr6zr8ThKzu9IJRiAtLQbOgEzXLPOvXx3WD1TVQ077WC/B64pMd59pfIuMChvyZER13evt28PrtdHCGqPuySoBjk0rbQDWFN429mi8S3VeIgrQkw/YuIu4Ps9z00k3S8vXv4u3SDwPECr6wXLX4XbBao7lyajhN/4P8ASd7T3GH98EfBUC2q37+PL8d37zXOGIMZUcFU0aDFkVGQkMqBJ737wd1mO83XCDXV/X9dNohDBGH0WsBQbC6o84hJEz+q/jQu1O2TWpKRHdUATE+t1DHgiOJb42l8vNNPUuhsQsLXwCRnyrM66seg2e7NWWxg4dNqtSa/bm22G6f4GzQ4b3W4jkkPn+GCsKa3htGqbZnXW3ue1waFX7wx//rstKrENnleoKKljc6jAABJCI5bmhwIghJGwLiU+pmpWpW6jf5p+2DFTTYklva5o7NYnGjo39U4MptU4vx9n940Jd1LlN8Kv4lMUTZ0mAiJO/AhGMzypZxq6bvwTktFAz6W0whOGTc2INa2qNffIovxCiUEaYX0pMJHagv59gbiFf0qpSEchoCCnQVkfWZjagyeiDqgqIU3YODW/MlSAnlea5PXH3Cfjh/7k1NDZ2VXVbmZFRusUBhmN0wawKCe+q96szE/jN8NoVGhQ0mhV6hOb3V4/3SMA8rcf2k//kXzckicsBM/dPkJZICKUDn/TwA4IQmCa9CRN1TRNir8BN476ipgfj6aVlonG63Yj+TTn/2qpUwydTfSc+AZ693yE6IjlEKFp41eT998nAvLiei5Lpr+LNMQucIPtjo9Nb6tmyhswn8fC2QVpqvbSWcXY9VS4NLXMKgdKFw5RVjebV9Ft6jkxTT3iAPRoPMI06b2qnrpyr+kF9FHjMmiC5inCE+vP1OA0p/ZgzOjBojSlOybsGjSYZGlqpM0EQ9XZ8GP1uAU1lCeH0IMvjR+4kTwIQN6ZvXFZgtOLEPzd0pAPXmU7IbFoSE8HGY6iNGWBuyZD00Z4icq8MD/lHz4x9nsOYFHXcdyrwa+Vis8pKaJ4XQ5LIU/bAust1gMJYcDkuAac4S40GaGoU+jd9Wbc6Wma2mAMMxRNw+oQnUSGxBZ9FjU6BcgNG71BgCaluaiexixAmtRQIxoai1+WFJ+/vtpXkRP0t4QkznX2o40JfX/ZvPcUhmSL06RrrUG97j/R+yCvl6KpzlrXRtPVsNNeT4igMAwsyeZEjqrm5CQ8ZdNk2ZdGfAajSWlZlXP0xIAmZTF06s6QDnBGWV5vazq3KLYG1odMk1cNLIQt9v4m5WthmnQF2yCdQCNPlKKJlssYCp13Oo3IwkKtR3xtDxuYtiCj1dAgNodMndKEaYvBaDIxKxa5U2by8VEsy6Jpez5xDTyVbo/+nGwmJi0JU5LuoTBNrFSMiBTETJImh7wiygyKr7aia13qagnRYJLMNAWaK1CaoIajNCn0Qio1Rlv6pCjKo4kGoIQY2iABqBsKHR50s5eqfihKk8ZskHQNcjRJmkgFi5HKDndggRjWMtBQQl9NZhK2D9pQZ+AUqvRAyIRkj8sqbCqRJvd+W2N+z0xX+Ue/WRulM4VFacJ6AaGnC2nq4r5W0soLXF7HTaZm33PsluNQJKEpET4mNMF8Z5tc9fVoqvW3Z6CGCzwXpDZlKrxlM0WjELDEhVhDlqaBlu3I7KOZaftM3Da2FUKTCWNM1OkBSuYl01Sa0quBgG4ensIfpVZ7cUGeWV20MkHoGAVpghqeOBoOTVj0J2wvAxxZsNMGR1JlkSVSmqCPxjQlHKFfLk2lzZtiBNvNaRo+v7Gw4kxDztyvIE2Jkr8nIU0t+I0ICz3bYgQLtxXFuOj4Bx8d05QIHzrsWcvAuKQoBIL7tqU5Z6Fte6kRikoIeCfMDIcm7LdyfV4FRVMzaRYajoymqg7HvxGaEnevq2XSNC7F53mU6/44t7mOaqQduwAFaUro3ZWQJiwu8td5oI7NJC1pBD+SDZim5ItGaIJDrKXTZ90f74Laoh1ZeqZZKy83tLeOZy+FEum+IqbJoDTpiVpzrK44NGF7UPJqni18QXYB3IwRSGhK/ARMU+Lts6rl0SSshNgN4XzpkfKUE4qY4FTfTHwKhZNDk7ozTViP5y/HMbZZ08nn0PRcDkvuEhSW5aTcByQSMCoQNqbeBR5UqKfbkSbi9HJXEEA5nwCxxdVn0HR9Xw5LaMUuMcychTc0r8QZpTMgQzAcfCzGzY40NbCEyI1XIzayUTiLTLo6n0CTdVWWxguimnNa9Sxex+awZWjdtn+Ont+y6o7jDwbzzrA97AyoVyI/EwZb8A0iR7gjTRsoLkTAvk1Ldyx5vaK50rFpuiyNpRra9oOMTp5Yk48ITVVdMxns+D8tRPhBmbSRS8SeBmYQcX9FY9uONA2LTG/X6IqMaidBBrVydJrGojr/D8CNk/a0gDYQiQgnWVwigGoacT8tME0gzDBkNOxIExYk2UAQBK5R01MrFUk8IVY+x6WpvGRgja5bI8FBYfnKoBBNUY4j0sQk8gOCdn8M2tc70kQ0RDb0+sSs1SLTsuRSuAUeJc3o7TkqTdZDjscLolLkGC5EzgVoPRSZO7mivVr8gjSh5eckxKzRcBAxicjAdqWJZPLTAuHJBrKCJB9MGPWZ0Xxi1OFHpSlvObt79+vm5eXl9vH5+e3t7QxjmTOU4YDrJdnBRbRFlSUuM8nwNKAuUl3gH1onGVHzfHeaKqRtYwIGOysKMNpUV9AFjeaUGJ2/ICwhGzsmTb+SW+K4od2wQnFPcNF7gqfEBxwhoqsIRIus/wjKdrKIMnMkRWQ0O1Ggtq2SvHWU2duZJloYoyrEzzlrtMULK9SjNU6GMR0O/Hl7xjbBMuKTjklTQj64/eXN5fUFc2EiBQCHM+8N8oTN6ReZOom8Xr3KyQnyoddZx+qmMhoprCIl8lI700TrHKI9DbqN6bTRtWmC38TiDrhlI5KfYKcyXIt+RJpu2LTW9fpvqT0rhak9sF1iSMQrtMh+PFeikQhhst2v8pK3PIRcwEokSGDcQ7vTNICFGKoR7+ZHQDPta5FfJjUNR6SJ5Wu92guxHVpLLnRZt8yAosVRgGwSeqBTJ/HWEqtF3D1hN0V1cAzpgsSoq1fcPjuNFfruNME1ISmYbNY75ftlnQRtj0cTq3MNHpmDo7XkQpcFeIkDd7eAJyTCSaGze5XTvN8LR4RZo7EeAqwaVTthZ/EANOP0GS4T/gBNiYJKAUuislfKwPFoooQEr+AoI0+0fQdYFIAkONyONIgvIp6zL16hMRypyoIXqJ7PYIl33P/WItNnRJZ9hKZKh+dy9dNk5iLxGAgqI+B4NBGrSO5xyCa8oukppAmNRaASE4eIsGwXlhj5C1vXRIHXNnRyanxomrQxg0YR8mhSRDRVnImZHu+0zAKndZpMrcsC63yaVB5NKGX/YZpoCi8p6ah2E9WdXPRTNCUS9Eg2XD8E8IQUzjehdNLE291MQP/gIXu+sBU02OuqZv+h/eX8g7agSqyobpts1V7lCZ3xTzJ9NAz1HWVKN2zjJNuNg3/By6FrJtyFlrSbSLLPTlFTyewtWs64L03pEOkrNZaA7/XuMjRV3tkhcrtHL/BcN+CZ0yoqx0/WKiYBllEzM/FPJs1RSFu3sYLlKT6G8GZ1fEK6bmmwXlSRfDG6fwTZ/nlD1zQlhKZ0V8m3mdeug4+Vukab0JRakWQxmvheL+P0Kon0L4k9XN48v529cbTek73NV9cBTYmgjnV+XmYXnDvzTmeeu9rcmq+eNpuTzt67L34YeGzKVHxTwS3QepCmMTnIEsDbtvNF1W6cFDZAl/qjQon4/zVwsCAzzLPtjPpcr/cKLIc5gjd61M1vFg0JWu7ryQanfDp/Ai7I7CZNBp0Y8esZXsB8Cxw+I1flqPAKmVxuKSpiNOVX1P0EkElodggi4Qm+13sWSEFiT/nrZtDcQs0REBWaCqxuKdX6EaCht8yysfxUBCUxpeSJlM/dJRbvTZlfrMI2sMxWCP88kBiqd5/micRTuUE5Mv9NBC9i4Glu3u6jOKWXT1OdBh1K20v0G4ONQRm/9yiOIpBoklvLfIVHuyBn8S3ZNCXX6bFdwuzPE8JfByzF3k+raGwynNrVC+GQRswpJzBOi1hzN66m64SMHy/HI1y6jKdU174KDYNkOnjVxyhpn1c/TjYhN3OkAUvC2z9eQMS4pPaUDr5d47lvttjumR9jioG0eu6aTrLgMmdwojtMyZEJgxQmZ6U31nPZuSreiI87ACEbzE0zbYxthtKhSfXu19nA8LPxN+7Z7HIkbDTZZX941MpMiiOQKoic9kidvyqS2gO6pYl0eQAvfZejrSlN49RxHEriz3wxTbl/9I5UJYINViA6NBOkfddtdA+D99pvjmhDc9XsVHUsCNjGwCowd5sVth6Dt2sj2x/M/vFhojTGnGNIW2dV93ve3IhkDHN3w6FVO7o9SxJltUe0FkvaUhFgpZfNDOI5MX9tLaIpV0JU4K6Dqt2cruaOU687/vykodIds5Tm/n8F7ScAjTIcaY3jEwH3KkzTtk1W1jbIb2uaYqhq/D/GXkNqvEI48/hhO6zHBQaDaMpfHh1h3hRsEBmTZP4rHV4xoOh5JgYe4qHveUHwmx8Puv4drdkItm4kWrHWYEtACF2x+ZtNS3AQmYXr9jkK8OL15ub1fSy47uXqarl8KLIhubXuhm4uQVXkAJsbOVkqjsszL1jeH/iPFPuraa9KV3Uqo8WftuRoR1wf5k/WpWE5g05nOOx0/C/0py0kJCQkJCQkJCQkJCQkJCQkJCQkJCQkJCQkJL4+/gOwKk1oeZH9YQAAAABJRU5ErkJggg==;" vertex="1" parent="1">
          <mxGeometry x="1022" y="173.12" width="113.06" height="31.88" as="geometry" />
        </mxCell>
        <mxCell id="KMc_ISXuQFN-_KLATee0-29" value="" style="rounded=1;whiteSpace=wrap;html=1;labelBackgroundColor=#99CCFF;fillColor=#d5e8d4;strokeColor=#82b366;" vertex="1" parent="1">
          <mxGeometry x="1070" y="206" width="151" height="86" as="geometry" />
        </mxCell>
        <mxCell id="KMc_ISXuQFN-_KLATee0-41" value="" style="endArrow=classic;startArrow=classic;html=1;edgeStyle=orthogonalEdgeStyle;exitX=1.041;exitY=0.317;exitDx=0;exitDy=0;exitPerimeter=0;strokeWidth=4;" edge="1" parent="1" source="KMc_ISXuQFN-_KLATee0-3">
          <mxGeometry width="50" height="50" relative="1" as="geometry">
            <mxPoint x="427.6" y="492" as="sourcePoint" />
            <mxPoint x="602" y="280" as="targetPoint" />
          </mxGeometry>
        </mxCell>
        <mxCell id="KMc_ISXuQFN-_KLATee0-45" value="" style="shape=image;verticalLabelPosition=bottom;labelBackgroundColor=#ffffff;verticalAlign=top;aspect=fixed;imageAspect=0;image=https://1.bp.blogspot.com/-VK78QIDHnpM/WzC-CUfHtII/AAAAAAABM-E/y3aOLBUxbwwjzIPTzU3OKHOTW5mZkbk0ACLcBGAs/s180-c/yaruki_moetsuki_man.png;" vertex="1" parent="1">
          <mxGeometry x="18" y="740" width="132.18" height="132.18" as="geometry" />
        </mxCell>
        <mxCell id="KMc_ISXuQFN-_KLATee0-46" value="" style="shape=image;verticalLabelPosition=bottom;labelBackgroundColor=#ffffff;verticalAlign=top;aspect=fixed;imageAspect=0;image=https://3.bp.blogspot.com/-x2M1ruy5UzQ/WiuPMax15fI/AAAAAAABIpU/DfncfbfB9Cs6HHAiKwOvjcFbk1ffCzwtQCLcBGAs/s180-c/sick_alzheimer_ojiisan.png;" vertex="1" parent="1">
          <mxGeometry x="42.999999999999986" y="446" width="88.29" height="88.29" as="geometry" />
        </mxCell>
        <mxCell id="KMc_ISXuQFN-_KLATee0-51" value="" style="group" vertex="1" connectable="0" parent="1">
          <mxGeometry x="787" y="369" width="70" height="74.94" as="geometry" />
        </mxCell>
        <mxCell id="KMc_ISXuQFN-_KLATee0-42" value="" style="html=1;whiteSpace=wrap;shape=isoCube2;backgroundOutline=1;isoAngle=15;labelBackgroundColor=#99CCFF;gradientColor=none;" vertex="1" parent="KMc_ISXuQFN-_KLATee0-51">
          <mxGeometry width="70" height="74.94" as="geometry" />
        </mxCell>
        <mxCell id="KMc_ISXuQFN-_KLATee0-43" value="" style="shape=image;verticalLabelPosition=bottom;labelBackgroundColor=#ffffff;verticalAlign=top;aspect=fixed;imageAspect=0;image=data:image/png,iVBORw0KGgoAAAANSUhEUgAAAOEAAADhCAMAAAAJbSJIAAAAk1BMVEUeN1r///8YM1cVMVYcNVkTMFUAJk8PLlT5+vsAKVEAJU/T1978/P0jPF7y9Pb4+Pnp6+7N0dkJK1ItR2lKXHhRYXsAIUzj5em/xc/m6Ow1TGw8UXB7iZ7IzNPR1t3Z3eJFVnJYZn6VnayyucOJlqegp7RzgJRcbohpeZCutL6Yoq8ySWp+jZ9gcotxf5UnQGAAHkzBs/0CAAARRklEQVR4nNVd6ZayuBYNSTCggoigKA4og2MV/f5P12B9zoQTIFjW/nFXr163qWyTnDnnIKVV9DVtYPa8eDPfrR1/dkwNZKSjme+sd/Mo9lbmQNP67S4BtfXhvmlNVmG0c9B43NFtRjCmFP2AUoyJatud8Zj62yhcTSyzNZ7tMLRWi/1pO+p2bIYvtIpBsWp3uyP3tF+srFZYymdoLr04CdQOI+XcHnmyDnaSQ7g0pa9HMkPTOyRumu2cMLkbMLMNNzl4ltwlyWRoetGXT6rs3cteEob9deRpElclj2HvFKSU1Nm8p60kNA3mQ2nrksTQjGe6CggVcWTiRz/Gkq6kDIbm8FvtSKN3IamTZCiDZGOG/Yn3xZhUdheSzN6Gk99n6DkdtQ1+Z6gdN+411JKNGQ6PrWzgBYS5m97vMlR6o/b2EOUKhDrR6lcZtk0x20fkn+ofVRmytOeTdikirI7C32SoLB3JuqKAo+4u6lk6cjT+0G2dIlJJvesoyaYZOm0f1Ezm6M6+hgkgyy5d+q0qjR9gVsNelWZ5ty5Rz2BBZXNVom/xForYSCoachL9w97sHRQpmXmtMRwMy/Vuz2ng/IoDj6NBOwynX8dl+f/jHUojR3c7bYGhtnAYcQBRNnSa+/giYI64+hdlaO5z04y4AMVl8AalkYHM9qInVZChGaXn3QEprt4iUbOFHA+CakOMoZkY/44fCQBv7T1KI1cbJ7GDKsRw4N6EJBkB+uhdFCnZSWM4RexORBIdMIB7wVuUBkK2L3JQBRj2Zo9WNTkCB3XYvjP1A+YI2Dcww+WL2yCgNNr3NH5W4gJGiAjDoft6rUCJOgzecxeR6iyaMiwiKEDxXeIGqS4UiQMYZlKj6LuUOMCHl6M3HVTVBe5iOUNrxlsnmUESVXwXm4kl4pRbN6UMBwZ/I4gN6UW/XKLmmW5CcIbsn37+kdYiy/zaDE2nzMjEKXRQuUqDEkaMke+4610yP0XRfP69+1o7wdGgrEZ+zv4q28UShuZ3+VUiAeRMFXoamLGRm5wO4XD6aHZZSy/eJGuf2hUtBkrmJaqfz9CMoDMDKw3n+S5imwRJHPb4K5p4cbQ17Epyihob/ge5DLV9Cp4X2Jl6DGwQ3T+FSzBPr628w9q2K2wkTmOuGc5luOCK0fslO8BB7d0pDXXshitBl2cwWUZGR/xKEp+r+XkMJ8WK8PXLgkqDMn1XrZRkMDmMusIGLnF5R4PD0Cw0ZYq+jCClkZ8FStCuRkh+sJ8JFwfY35xzymE47wj+dpknCiw9s9xZWoffGYcZFjyr47gKQ+8/UYIZRVBprNe1U2PZdTmJ5u66xesoZDiZVVG7oDPVa1bltNghoeXgoDDGWMQQUvUvFCGl0RDTTSom9pIiUVbEMDYqmofEBQ5qQwwWvi2wDGoUXcUChgu/smlIgia1BAKwvroCy8BFWvGVoZXUCOritHlpTykGp67AwWLJ65V/ZbgXORCvFEnLu9iPDYGjpe9hhquahRXEb1bYA1MMBSQ8fl3FM8PBSa9FUEBpNEZ4hCna82df8ZmhVz+C1LbSUPp7ASHPnvOnTwz7Ygb3r1GEJSoJniKoTwxjYXu0+Ott38XNGFyE/qQUHxlqsNdbThFK2zTF4AuU9Dh9tGweGZ6aBjmx3jJFC75GZM5nuKpkcRd/HkrbPEAzLcuaTrP/MQeC1YfDI0QRP4Zy7xn25xJyRsJKw5wMvfi0WzuB77jbZLMfCj2a0UCrmdITj+EwkFFnICRRzeH+tDY6OlN/gsKE2R0W7A4efMitBNpEEtyv4I6htpGT9rM5zvbdIvdzB79GRTGzR18b8PcBPQOKo7uIxh3DnpxSEQJlg6zD2uA9G6IqCxIoYRZBG/EQq74x7Me1TO5XHMrXFzpILVsiJsd5eUGQBd4mO77d6BvDVRNz5gbyVRozXK1t8KRglfIDvDn28E28idMrw/6+kTlzATVe/ZcbzPCh6IH/lXF5XRfo/3T21028MrRcSbew5Ne3TmNRWWaPyjL0IWSf4luA+MpwUddreoReEjicJLBVeVvjMeTnzDQw0NK5uhhXhjspBWl4xCe4qvYnyHHPPw6gk6Fey4kuDC05FXf6hr+Du4rXgBxD7kG1wE1kl2N6YbiRc0i73OCvNa98z/GIqxm1DaTarr/1hWHVEGkx2DfvV9fqaFs84krUHnTmsPHIUJKc6XJ/dE9ISzyDuTxpM/2Cwi2298BwLqXAB894h7RaJuSGLu9ewxaY+n3P0JTiVSD7xLNn6kbwKOY5GwvoN8OBeccwTGVcQ2rz3gksa5u8Ku9mT3bAsaNpeMfwJGUL8YznVWxrXwKacn61fgT9avh0YzhdS2GofnFE37BBYRdJOL/aHvov8Xp6Zeg1j8/k0DccI2TXwGvBPmcTPUjp45/HNWeGGzlly5hjky6rp+vuwKLir4L6gpLNhaFZJ5/2CjzjaMOD0eSzZMvJap2gVbNzTjhnuJQVviheiglJvXJwZc0G+i/xOeyXMwwb/cZXsO9ifd/0qZB9KL7eMbzs8IchbMUKriQqVl0iGaMysF2xiPaO0HfPv03GcCrHNUQqJwS1afj5gqznGT3Yg/qenhmu5JhsiBbHSa2koc1L7WIJZoFvHnAekMoYLuRsIU2LY1CrxuZEd198/NegmmWLnKGkINtFwb5g2Egb5rA3xT7UF8iwE/czhiaoV8SAg+LD5DV2rtXCWicRUynXiEhWGDFjWJxx8BoHmsm2WA0lcGzZtTKGEzkBjEy/Fpd+hY11EeZUx8KRH2pMMoa9CkHM0nVwntGEja85duoyRN1exrD5Cn7AM9qaCzLsF6v8iIKnrxMqCPYkRdfB2UMJDIsLR5UIznfapz7SJFk0/+zcglPaOIxHOKdUIDKhbjWkSbJouNoibPwLknXte4h9DQ1kPdrlOeNe4y+ru7raAlE6QFaFovVS8GyaxazpT8g4QUqR4MjYRLKUBaLH4iBGc/9a52SEYbs0Y9hDnkh5sRA42d8JbD4C6BYfDs0V+HAnRHs5GYsMpNg/bGz3UqNYSE9FDocdI0kOfv4xTlAsblimgzmmxFJEC9gRkpOTyVFURp6jaTSWlw0JwShGBnWOGt+SK3hhv4mIROCDEk51h0AkKlvUDknynRDffWqYFeF+NhL54fAayesKRA1OYDMcNbmIjOP/akJxbOygQF6TDl7Jniki1rkofOqjiMZ/qI98eQzZnJMCblL0SHg9E+BwaQ46Q8faf/sFmPf6qVH5OC/PHYspgRFK6//tFxBebeihtlnB8w2FDYkUyclZ/KDDKyms7aJRm1cI2BO83DL58YNiebFJvS8yl1eg4wlfbakcGe8BW83nVBTznm6aosEXQ+o9LClrm2zr7GKXW6w6EdXjaSZrJALPuLV2ixotebr8jh6e6Jk4osYe+AP+4z8IDkdVpQ0v5ZrBBIu+/iHThxI1PspjW1yGikArkQfgHf/xxUp0CzObRm63StoteSy7r3RQcVkfhrmoV5vZpXKKha5gvAKfHN5IWNxQ+1TyfGYi/FNhFzWp5in6YunLrsVWF7sUhJV2RBbewtw/lOfjn/H0rOrlx49UkV+0E5R2YK2QLst8fFlpiwsKX/3foHmBDj1bYiwqfzQzFz93doRkvQW6guexXtCPR5jws0YYbmXjVfCo9RjJSq5dQVHZq5kfju4RF3Uto1g1/ATqsWF+VTCPOp68mPcV6hpsr6B50dantorxpS6TYsxY6iQx3JphVSWyNV4iUzpDxDi1Ew+YenH05cwQ0zudjk3SYJ0c9kuhxrlVmof+Z6EBnEitCmqI9RTSJsuFF4bhPgw9b7gS79Oz9EUVQJ57gp8QVQeG2kY2hXDbSRxoSKtfg80Hc9plKExR/dJQ/yRbXeTQ5/Aqm1EUG1NgR315tRiPUDlpGnkUhVyGzj6vp5GWQLwHNsofujaH0JiCcz2NrJqoZ4plzwflUISVxk9NlKy6tmcQn/98UA7g2TZ5FQeSValf8PkZ2HqgIUCJyuamxPrSAopGqSf1Bor5k255NcIFoEysuX8TiqWL1xdS67yLYDttWzdlfRLONfB5rf53i3NF2KjOnK0KKFMa53Bk/t7i0IZVcwHGp4bb2C8XySVKwz70/72ZaZFg/nfW+ybtPYeH2mMKjH9vZlqf8KPSnVdXNVobR687puD27qk1jXgFO85r9f804zUmCBxTwKH4kxWQ+f6wBBgfd5Xb1Wmx89PYnxzB2TZFe6Re3x/KekNazlHtZmac+GHtT07GtZUNgZqkZRrvZZPu35BKegcMkhyPoqUlMonKtLzt+L4pOx7BYwqe/9y/0mKZb7kFONq6s1mUdy0zJ70wSTtPnZYIrzLqglelcf+WW9J7fCEQXfWT2CtszqZNe14YbUd6QYuJymMKHt/jS+qpIAjMdBRsk+gQh563GPZWveVw4e3jzWnnHhln9gOFZ9s8Bjawf99TQfl+0+Cb298nzGbGceYHjus6TuDPUsRstSTcL6I07g8qeeiLoXhtGm585PNXMP4ZxQLfE+ExBedPX95lXvvTvPOY1gUh4Gyb6y4+96eR1WOoZeAUHFNw0Yv6per82ifqd45pVcBjCi56Ub+kIG+9vt4ta+pBQGmcD6r6dfkXt35tbUVrJENstg3VX/u1tRVUlA6h2TakoOdeeyE32RBRGt1bfk9678s3ABugM+UX9L6U17+0fWAE7OIwvGUU7nrQLv/MJnJbZRThvo+wwLvaT0GFMQWPvaD/zCZW6OH/0LH8JL9qoS1Q4dk2snuyvw+iYwoe++pXKBj7fWCxMQWPDM2GsxHeC2yL5Aue51v8CSfqAsJtY8hn2GhGyfshojRe5sy0HeCXCwGl8TIrSLzA+CMAU3yZ9wT3CPssgBG4gpldf0rY5Gmbcokqae7abwJI28iZnfe7KE/bSJl/+NsoTdsUzrAEJ7l8GsokauEc0ulbEzUyUEKxeJbsspWKzDbBVxqcecCx/Ar+lsHN9XMYat9/y7RBSHU5tVe8udxWo04P7wcJeEqRP1u95rTO3wHh9aEuYajFf8gbxim/5JrLUDE3f0bxUxTxCyD5DBVz3nqplCSQ75IKzxKGIgMjPwLMKSthLWOoKGAx/CeAGKVlVuUMBxXewf0WCHf0iwhDZeJ+evJbhQLDAEOl9+EU1epxmmcsnE+mCBOEGfaHH2y/1YmXFmDifKpErRPzLoTpf6RepMwob0wgzjDv9vp51g0l3JFlNRhqp4+r7MMG0LuhGkPFPIDDot8LnJYY23UYKoP97JMoEl/4OZUoQ0VbfJBIZU5pd5d6DBVluv2UCFyXN/6sIUNlEP33CfIG/xcJCdEaDPPHNb+uNijhdEaXw1CZJL+sNjIlUeGE1mComHHwmwKHOfsqJ7QOQ0UZznmj31sHYfPKD+BqMFTMvSPYk0wuqO7UeVNcg6GirCLyfqdRpVGtB8W1GGbq34V6kkkG7rjiSl4CQyVvZVnUrastfuQINRCTz1Dpn3z0Ho4Y+ZzBg+0yzK+jQ9u3AAh2IqEixBYYKkpv47J2XQ7C3E2tZ+CSGCr9Xux22pOrqu7uVw273DRkmGESbu1ag9MhUGavwybnUxbDzAQYJkSXXOdPcQfPlzKahshgqOTm6lFXRd6BCtJT9WNpi9YKkMRQye3VIKUSdCQmNHVq2J88yGN47mi59jFroEAoYXi2jTyZXcJkMsxgeYfENWy1zlZi1U7d5OBJ7tgjmWEGcxkeEgd3WAXZQ4ndxUESez35DYnkM8zQt1aL/ckddbvZbpbzzM6l3e2m21MINJOojVYY5uib1mQV5q1mx+OObavk7sk9pTjvOKB3x2Pk7DZhb2K110yqNYY/6GvawFx5cTTfrR1/NkoNZKRHP3DWu/lm7/Wsgaa13Jnvf6veMQVlucKeAAAAAElFTkSuQmCC;" vertex="1" parent="KMc_ISXuQFN-_KLATee0-51">
          <mxGeometry x="17.559999999999945" y="20.029999999999973" width="34.88" height="34.88" as="geometry" />
        </mxCell>
        <mxCell id="KMc_ISXuQFN-_KLATee0-54" value="" style="group" vertex="1" connectable="0" parent="1">
          <mxGeometry x="1107" y="338" width="106" height="99.40999999999997" as="geometry" />
        </mxCell>
        <mxCell id="KMc_ISXuQFN-_KLATee0-49" value="" style="outlineConnect=0;dashed=0;verticalLabelPosition=bottom;verticalAlign=top;align=center;html=1;shape=mxgraph.aws3.android;fillColor=#FFD44F;gradientColor=none;labelBackgroundColor=#99CCFF;" vertex="1" parent="KMc_ISXuQFN-_KLATee0-54">
          <mxGeometry y="22" width="68" height="77.41" as="geometry" />
        </mxCell>
        <mxCell id="KMc_ISXuQFN-_KLATee0-50" value="" style="shape=image;html=1;verticalAlign=top;verticalLabelPosition=bottom;labelBackgroundColor=#ffffff;imageAspect=0;aspect=fixed;image=https://cdn4.iconfinder.com/data/icons/logos-and-brands/512/267_Python_logo-128.png;fillColor=none;gradientColor=none;" vertex="1" parent="KMc_ISXuQFN-_KLATee0-54">
          <mxGeometry x="47" width="59" height="59" as="geometry" />
        </mxCell>
        <mxCell id="KMc_ISXuQFN-_KLATee0-60" value="" style="endArrow=classic;startArrow=classic;html=1;exitX=1.083;exitY=0.594;exitDx=0;exitDy=0;exitPerimeter=0;fillColor=#ffe6cc;strokeColor=#d79b00;strokeWidth=3;" edge="1" parent="1" source="KMc_ISXuQFN-_KLATee0-26">
          <mxGeometry width="50" height="50" relative="1" as="geometry">
            <mxPoint x="739" y="303" as="sourcePoint" />
            <mxPoint x="789" y="253" as="targetPoint" />
          </mxGeometry>
        </mxCell>
        <mxCell id="KMc_ISXuQFN-_KLATee0-62" value="" style="endArrow=classic;startArrow=classic;html=1;exitX=1.083;exitY=0.594;exitDx=0;exitDy=0;exitPerimeter=0;fillColor=#ffe6cc;strokeWidth=3;" edge="1" parent="1">
          <mxGeometry width="50" height="50" relative="1" as="geometry">
            <mxPoint x="641.1358" y="239.07600000000002" as="sourcePoint" />
            <mxPoint x="789" y="239" as="targetPoint" />
          </mxGeometry>
        </mxCell>
        <mxCell id="KMc_ISXuQFN-_KLATee0-64" value="" style="endArrow=classic;startArrow=classic;html=1;exitX=1.083;exitY=0.594;exitDx=0;exitDy=0;exitPerimeter=0;fillColor=#ffe6cc;strokeColor=#d79b00;strokeWidth=3;" edge="1" parent="1">
          <mxGeometry width="50" height="50" relative="1" as="geometry">
            <mxPoint x="639.1358" y="665.4860000000001" as="sourcePoint" />
            <mxPoint x="746" y="665" as="targetPoint" />
          </mxGeometry>
        </mxCell>
        <mxCell id="KMc_ISXuQFN-_KLATee0-66" value="" style="endArrow=classic;startArrow=classic;html=1;fillColor=#ffe6cc;strokeColor=#d79b00;strokeWidth=3;" edge="1" parent="1">
          <mxGeometry width="50" height="50" relative="1" as="geometry">
            <mxPoint x="619" y="604" as="sourcePoint" />
            <mxPoint x="619" y="277" as="targetPoint" />
          </mxGeometry>
        </mxCell>
        <mxCell id="KMc_ISXuQFN-_KLATee0-67" value="" style="rounded=1;whiteSpace=wrap;html=1;labelBackgroundColor=#99CCFF;strokeColor=#6c8ebf;" vertex="1" parent="1">
          <mxGeometry x="778" y="595" width="479" height="289" as="geometry" />
        </mxCell>
        <mxCell id="KMc_ISXuQFN-_KLATee0-68" value="" style="points=[];aspect=fixed;html=1;align=center;shadow=0;dashed=0;image;image=img/lib/allied_telesis/computer_and_terminals/Server_Desktop.svg;" vertex="1" parent="1">
          <mxGeometry x="751" y="639" width="42.599999999999994" height="54" as="geometry" />
        </mxCell>
        <mxCell id="KMc_ISXuQFN-_KLATee0-69" value="" style="points=[];aspect=fixed;html=1;align=center;shadow=0;dashed=0;image;image=img/lib/allied_telesis/computer_and_terminals/Server_Desktop.svg;" vertex="1" parent="1">
          <mxGeometry x="751" y="767" width="42.599999999999994" height="54" as="geometry" />
        </mxCell>
        <mxCell id="KMc_ISXuQFN-_KLATee0-71" value="" style="aspect=fixed;html=1;points=[];align=center;image;fontSize=12;image=img/lib/mscae/Kubernetes.svg;labelBackgroundColor=#99CCFF;fillColor=#ffffff;gradientColor=none;" vertex="1" parent="1">
          <mxGeometry x="1278" y="835" width="69.17" height="66.4" as="geometry" />
        </mxCell>
        <mxCell id="KMc_ISXuQFN-_KLATee0-73" value="" style="shape=image;html=1;verticalAlign=top;verticalLabelPosition=bottom;labelBackgroundColor=#ffffff;imageAspect=0;aspect=fixed;image=https://cdn4.iconfinder.com/data/icons/logos-brands-5/24/flask-128.png;fillColor=#ffffff;gradientColor=none;" vertex="1" parent="1">
          <mxGeometry x="1131" y="226" width="44" height="44" as="geometry" />
        </mxCell>
        <mxCell id="KMc_ISXuQFN-_KLATee0-79" value="" style="rounded=0;whiteSpace=wrap;html=1;labelBackgroundColor=#99CCFF;fillColor=#ffffff;gradientColor=none;strokeWidth=4;strokeColor=#66FFFF;" vertex="1" parent="1">
          <mxGeometry x="835" y="644" width="393" height="196" as="geometry" />
        </mxCell>
        <mxCell id="KMc_ISXuQFN-_KLATee0-81" value="" style="outlineConnect=0;dashed=0;verticalLabelPosition=bottom;verticalAlign=top;align=center;html=1;shape=mxgraph.aws3.mysql_db_instance;fillColor=#2E73B8;gradientColor=none;labelBackgroundColor=#99CCFF;strokeColor=#000000;strokeWidth=4;" vertex="1" parent="1">
          <mxGeometry x="1102" y="717" width="102" height="102" as="geometry" />
        </mxCell>
        <mxCell id="KMc_ISXuQFN-_KLATee0-86" value="" style="shape=image;verticalLabelPosition=bottom;labelBackgroundColor=#ffffff;verticalAlign=top;aspect=fixed;imageAspect=0;image=https://www.topgate.co.jp/wp/wp-content/uploads/2017/02/gcp.jpg;" vertex="1" parent="1">
          <mxGeometry x="218.74" y="29" width="222.85" height="117" as="geometry" />
        </mxCell>
        <mxCell id="KMc_ISXuQFN-_KLATee0-91" value="container" style="text;strokeColor=none;fillColor=none;html=1;fontSize=24;fontStyle=1;verticalAlign=middle;align=center;labelBackgroundColor=none;" vertex="1" parent="1">
          <mxGeometry x="842" y="644" width="100" height="40" as="geometry" />
        </mxCell>
        <mxCell id="KMc_ISXuQFN-_KLATee0-92" value="・/var/lib/mysql" style="text;strokeColor=none;fillColor=none;html=1;fontSize=24;fontStyle=1;verticalAlign=middle;align=center;labelBackgroundColor=none;" vertex="1" parent="1">
          <mxGeometry x="897.06" y="705" width="100" height="40" as="geometry" />
        </mxCell>
        <mxCell id="KMc_ISXuQFN-_KLATee0-93" value="&lt;font style=&quot;font-size: 20px&quot;&gt;master: /~/mysqldata&lt;/font&gt;" style="text;strokeColor=none;fillColor=none;html=1;fontSize=24;fontStyle=1;verticalAlign=middle;align=center;labelBackgroundColor=none;" vertex="1" parent="1">
          <mxGeometry x="441.5899999999999" y="654" width="100" height="24" as="geometry" />
        </mxCell>
        <mxCell id="KMc_ISXuQFN-_KLATee0-94" value="" style="endArrow=classic;startArrow=classic;html=1;strokeColor=#000000;strokeWidth=3;dashed=1;edgeStyle=orthogonalEdgeStyle;" edge="1" parent="1">
          <mxGeometry width="50" height="50" relative="1" as="geometry">
            <mxPoint x="856" y="727" as="sourcePoint" />
            <mxPoint x="513" y="686" as="targetPoint" />
            <Array as="points">
              <mxPoint x="513" y="727" />
              <mxPoint x="513" y="686" />
            </Array>
          </mxGeometry>
        </mxCell>
        <mxCell id="KMc_ISXuQFN-_KLATee0-128" value="Mount" style="edgeLabel;html=1;align=center;verticalAlign=middle;resizable=0;points=[];fontSize=22;labelBorderColor=none;" vertex="1" connectable="0" parent="KMc_ISXuQFN-_KLATee0-94">
          <mxGeometry x="0.0065" y="-3" relative="1" as="geometry">
            <mxPoint as="offset" />
          </mxGeometry>
        </mxCell>
        <mxCell id="KMc_ISXuQFN-_KLATee0-97" value="" style="endArrow=classic;startArrow=classic;html=1;dashed=1;strokeWidth=3;entryX=0.323;entryY=1.08;entryDx=0;entryDy=0;entryPerimeter=0;strokeColor=#FF6666;" edge="1" parent="1" source="KMc_ISXuQFN-_KLATee0-102" target="KMc_ISXuQFN-_KLATee0-3">
          <mxGeometry width="50" height="50" relative="1" as="geometry">
            <mxPoint x="201.39999999999998" y="831.0899999999999" as="sourcePoint" />
            <mxPoint x="251.39999999999998" y="781.0899999999999" as="targetPoint" />
          </mxGeometry>
        </mxCell>
        <mxCell id="KMc_ISXuQFN-_KLATee0-98" value="" style="endArrow=classic;startArrow=classic;html=1;dashed=1;strokeWidth=3;strokeColor=#FF6666;edgeStyle=orthogonalEdgeStyle;" edge="1" parent="1">
          <mxGeometry width="50" height="50" relative="1" as="geometry">
            <mxPoint x="407" y="459" as="sourcePoint" />
            <mxPoint x="592" y="248" as="targetPoint" />
            <Array as="points">
              <mxPoint x="407" y="248" />
              <mxPoint x="583" y="248" />
            </Array>
          </mxGeometry>
        </mxCell>
        <mxCell id="KMc_ISXuQFN-_KLATee0-99" value="" style="endArrow=classic;startArrow=classic;html=1;dashed=1;strokeWidth=3;strokeColor=#FF6666;" edge="1" parent="1">
          <mxGeometry width="50" height="50" relative="1" as="geometry">
            <mxPoint x="778" y="397" as="sourcePoint" />
            <mxPoint x="637.6" y="268.42" as="targetPoint" />
          </mxGeometry>
        </mxCell>
        <mxCell id="KMc_ISXuQFN-_KLATee0-100" value="" style="endArrow=classic;startArrow=classic;html=1;dashed=1;strokeWidth=3;strokeColor=#FF6666;entryX=0.5;entryY=1;entryDx=0;entryDy=0;" edge="1" parent="1" target="KMc_ISXuQFN-_KLATee0-29">
          <mxGeometry width="50" height="50" relative="1" as="geometry">
            <mxPoint x="857" y="403" as="sourcePoint" />
            <mxPoint x="1042" y="192" as="targetPoint" />
          </mxGeometry>
        </mxCell>
        <mxCell id="KMc_ISXuQFN-_KLATee0-101" value="" style="endArrow=classic;startArrow=classic;html=1;dashed=1;strokeWidth=3;strokeColor=#FF6666;" edge="1" parent="1" target="KMc_ISXuQFN-_KLATee0-49">
          <mxGeometry width="50" height="50" relative="1" as="geometry">
            <mxPoint x="868" y="400" as="sourcePoint" />
            <mxPoint x="1018.5000000000005" y="315" as="targetPoint" />
          </mxGeometry>
        </mxCell>
        <mxCell id="KMc_ISXuQFN-_KLATee0-102" value="" style="shape=image;html=1;verticalAlign=top;verticalLabelPosition=bottom;labelBackgroundColor=#ffffff;imageAspect=0;aspect=fixed;image=https://cdn4.iconfinder.com/data/icons/socialcones/508/Github-128.png;strokeColor=#000000;strokeWidth=4;fillColor=none;gradientColor=none;" vertex="1" parent="1">
          <mxGeometry x="269" y="618" width="66" height="66" as="geometry" />
        </mxCell>
        <mxCell id="KMc_ISXuQFN-_KLATee0-103" value="" style="endArrow=classic;startArrow=classic;html=1;dashed=1;strokeWidth=3;entryX=0;entryY=1;entryDx=0;entryDy=0;strokeColor=#FF6666;" edge="1" parent="1" source="KMc_ISXuQFN-_KLATee0-2" target="KMc_ISXuQFN-_KLATee0-102">
          <mxGeometry width="50" height="50" relative="1" as="geometry">
            <mxPoint x="193.90069715501204" y="791" as="sourcePoint" />
            <mxPoint x="398.7597999999998" y="521.3199999999999" as="targetPoint" />
          </mxGeometry>
        </mxCell>
        <mxCell id="KMc_ISXuQFN-_KLATee0-104" value="" style="shape=image;html=1;verticalAlign=top;verticalLabelPosition=bottom;labelBackgroundColor=#ffffff;imageAspect=0;aspect=fixed;image=https://cdn1.iconfinder.com/data/icons/designer-skills/128/slack-128.png;strokeColor=#000000;strokeWidth=4;fillColor=none;gradientColor=none;" vertex="1" parent="1">
          <mxGeometry x="329" y="791" width="61.18" height="61.18" as="geometry" />
        </mxCell>
        <mxCell id="KMc_ISXuQFN-_KLATee0-106" value="" style="endArrow=classic;startArrow=classic;html=1;dashed=1;strokeWidth=3;entryX=0;entryY=0.5;entryDx=0;entryDy=0;strokeColor=#FF6666;exitX=1.014;exitY=0.504;exitDx=0;exitDy=0;exitPerimeter=0;" edge="1" parent="1" source="KMc_ISXuQFN-_KLATee0-2" target="KMc_ISXuQFN-_KLATee0-104">
          <mxGeometry width="50" height="50" relative="1" as="geometry">
            <mxPoint x="220.09000000000015" y="921" as="sourcePoint" />
            <mxPoint x="220.00000000000023" y="838" as="targetPoint" />
          </mxGeometry>
        </mxCell>
        <mxCell id="KMc_ISXuQFN-_KLATee0-107" value="" style="endArrow=classic;startArrow=classic;html=1;dashed=1;strokeWidth=3;entryX=0.351;entryY=1.058;entryDx=0;entryDy=0;entryPerimeter=0;strokeColor=#FF6666;exitX=0.5;exitY=0;exitDx=0;exitDy=0;" edge="1" parent="1" source="KMc_ISXuQFN-_KLATee0-104" target="KMc_ISXuQFN-_KLATee0-3">
          <mxGeometry width="50" height="50" relative="1" as="geometry">
            <mxPoint x="336.62271283158543" y="628" as="sourcePoint" />
            <mxPoint x="408.7597999999998" y="531.3199999999999" as="targetPoint" />
          </mxGeometry>
        </mxCell>
        <mxCell id="KMc_ISXuQFN-_KLATee0-108" value="" style="endArrow=classic;startArrow=classic;html=1;dashed=1;strokeColor=#82b366;strokeWidth=3;entryX=0.5;entryY=1;entryDx=0;entryDy=0;fillColor=#d5e8d4;edgeStyle=orthogonalEdgeStyle;" edge="1" parent="1" target="KMc_ISXuQFN-_KLATee0-86">
          <mxGeometry width="50" height="50" relative="1" as="geometry">
            <mxPoint x="193" y="459" as="sourcePoint" />
            <mxPoint x="243" y="409" as="targetPoint" />
          </mxGeometry>
        </mxCell>
        <mxCell id="KMc_ISXuQFN-_KLATee0-109" value="" style="endArrow=classic;startArrow=classic;html=1;dashed=1;strokeColor=#82b366;strokeWidth=3;fillColor=#d5e8d4;exitX=0.5;exitY=0;exitDx=0;exitDy=0;edgeStyle=orthogonalEdgeStyle;entryX=1.019;entryY=0.135;entryDx=0;entryDy=0;entryPerimeter=0;" edge="1" parent="1" source="KMc_ISXuQFN-_KLATee0-29" target="KMc_ISXuQFN-_KLATee0-86">
          <mxGeometry width="50" height="50" relative="1" as="geometry">
            <mxPoint x="427.6" y="362" as="sourcePoint" />
            <mxPoint x="471" y="75" as="targetPoint" />
            <Array as="points">
              <mxPoint x="1145" y="45" />
            </Array>
          </mxGeometry>
        </mxCell>
        <mxCell id="KMc_ISXuQFN-_KLATee0-110" value="Master" style="text;strokeColor=none;fillColor=none;html=1;fontSize=24;fontStyle=1;verticalAlign=middle;align=center;labelBackgroundColor=#ffffff;labelBorderColor=#000000;" vertex="1" parent="1">
          <mxGeometry x="566.3" y="606" width="100" height="40" as="geometry" />
        </mxCell>
        <mxCell id="KMc_ISXuQFN-_KLATee0-111" value="Worker1" style="text;html=1;fontSize=24;fontStyle=1;verticalAlign=middle;align=center;labelBackgroundColor=#ffffff;labelBorderColor=#000000;" vertex="1" parent="1">
          <mxGeometry x="722.3" y="606" width="100" height="40" as="geometry" />
        </mxCell>
        <mxCell id="KMc_ISXuQFN-_KLATee0-112" value="Worker2" style="text;strokeColor=none;fillColor=none;html=1;fontSize=24;fontStyle=1;verticalAlign=middle;align=center;labelBackgroundColor=#ffffff;labelBorderColor=#000000;" vertex="1" parent="1">
          <mxGeometry x="722.3" y="734" width="100" height="40" as="geometry" />
        </mxCell>
        <mxCell id="KMc_ISXuQFN-_KLATee0-113" value="local" style="text;html=1;fontSize=24;fontStyle=1;verticalAlign=middle;align=center;labelBackgroundColor=#ffffff;labelBorderColor=#000000;" vertex="1" parent="1">
          <mxGeometry x="942" y="470.2" width="100" height="40" as="geometry" />
        </mxCell>
        <mxCell id="KMc_ISXuQFN-_KLATee0-114" value="共有サーバ" style="text;html=1;fontSize=24;fontStyle=1;verticalAlign=middle;align=center;labelBackgroundColor=#ffffff;labelBorderColor=#000000;" vertex="1" parent="1">
          <mxGeometry x="566.3" y="187" width="100" height="40" as="geometry" />
        </mxCell>
        <mxCell id="KMc_ISXuQFN-_KLATee0-116" value="" style="endArrow=classic;startArrow=classic;html=1;exitX=1.083;exitY=0.594;exitDx=0;exitDy=0;exitPerimeter=0;fillColor=#ffe6cc;strokeColor=#d79b00;strokeWidth=3;" edge="1" parent="1">
          <mxGeometry width="50" height="50" relative="1" as="geometry">
            <mxPoint x="845.9958" y="256.076" as="sourcePoint" />
            <mxPoint x="1063" y="256" as="targetPoint" />
          </mxGeometry>
        </mxCell>
        <mxCell id="KMc_ISXuQFN-_KLATee0-117" value="" style="endArrow=classic;startArrow=classic;html=1;exitX=1.083;exitY=0.594;exitDx=0;exitDy=0;exitPerimeter=0;fillColor=#ffe6cc;strokeWidth=3;" edge="1" parent="1">
          <mxGeometry width="50" height="50" relative="1" as="geometry">
            <mxPoint x="846.9958000000001" y="239.07600000000002" as="sourcePoint" />
            <mxPoint x="1064" y="239" as="targetPoint" />
          </mxGeometry>
        </mxCell>
        <mxCell id="KMc_ISXuQFN-_KLATee0-118" value="WEBコンテナ" style="text;html=1;fontSize=19;fontStyle=1;verticalAlign=middle;align=center;labelBackgroundColor=#ffffff;labelBorderColor=#000000;" vertex="1" parent="1">
          <mxGeometry x="1170" y="190" width="100" height="40" as="geometry" />
        </mxCell>
        <mxCell id="KMc_ISXuQFN-_KLATee0-119" value="droneコンテナ" style="text;html=1;fontSize=19;fontStyle=1;verticalAlign=middle;align=center;labelBackgroundColor=#ffffff;labelBorderColor=#000000;" vertex="1" parent="1">
          <mxGeometry x="772" y="338" width="100" height="40" as="geometry" />
        </mxCell>
        <mxCell id="KMc_ISXuQFN-_KLATee0-120" value="pythonコンテナ" style="text;html=1;fontSize=19;fontStyle=1;verticalAlign=middle;align=center;labelBackgroundColor=#ffffff;labelBorderColor=#000000;" vertex="1" parent="1">
          <mxGeometry x="1128" y="306" width="100" height="40" as="geometry" />
        </mxCell>
        <mxCell id="KMc_ISXuQFN-_KLATee0-121" value="nginxコンテナ" style="text;html=1;fontSize=19;fontStyle=1;verticalAlign=middle;align=center;labelBackgroundColor=#ffffff;labelBorderColor=#000000;" vertex="1" parent="1">
          <mxGeometry x="770" y="181" width="100" height="40" as="geometry" />
        </mxCell>
        <mxCell id="KMc_ISXuQFN-_KLATee0-122" value="pod" style="text;html=1;fontSize=24;fontStyle=1;verticalAlign=middle;align=center;labelBackgroundColor=#ffffff;labelBorderColor=#000000;" vertex="1" parent="1">
          <mxGeometry x="1138" y="625" width="100" height="40" as="geometry" />
        </mxCell>
        <mxCell id="KMc_ISXuQFN-_KLATee0-123" value="Oauthによる認可" style="text;html=1;fontSize=24;fontStyle=1;verticalAlign=middle;align=center;labelBackgroundColor=#ffffff;labelBorderColor=#000000;" vertex="1" parent="1">
          <mxGeometry x="280.16999999999996" y="14" width="100" height="40" as="geometry" />
        </mxCell>
        <mxCell id="KMc_ISXuQFN-_KLATee0-124" value="・drone-serverとGitを連携させているので遠隔的に&lt;br&gt;　コンテナのブラッシュアップができる" style="shape=callout;whiteSpace=wrap;html=1;perimeter=calloutPerimeter;labelBackgroundColor=#ffffff;strokeColor=#000000;strokeWidth=3;fillColor=none;gradientColor=none;fontSize=19;rotation=0;position2=0.95;base=55;size=16;position=0.84;align=left;direction=west;" vertex="1" parent="1">
          <mxGeometry x="81.40000000000003" y="877" width="490.4" height="80" as="geometry" />
        </mxCell>
        <mxCell id="KMc_ISXuQFN-_KLATee0-125" value="droneで実行された結果などを通知してくれる" style="shape=callout;whiteSpace=wrap;html=1;perimeter=calloutPerimeter;labelBackgroundColor=#ffffff;strokeColor=#000000;strokeWidth=3;fillColor=none;gradientColor=none;fontSize=19;direction=south;" vertex="1" parent="1">
          <mxGeometry x="390.18" y="788.4" width="202.82" height="79.6" as="geometry" />
        </mxCell>
        <mxCell id="KMc_ISXuQFN-_KLATee0-126" value="・紐づけされたリポジトリが　&lt;br&gt;　更新されたらdrone.yaml　&lt;br&gt;　を読み込み、処理を実行する" style="shape=callout;whiteSpace=wrap;html=1;perimeter=calloutPerimeter;labelBackgroundColor=#ffffff;strokeColor=#000000;strokeWidth=3;gradientColor=none;fontSize=19;direction=west;base=40;size=18;position=0.6;position2=0.59;align=left;" vertex="1" parent="1">
          <mxGeometry x="665" y="437.41" width="277" height="107" as="geometry" />
        </mxCell>
        <mxCell id="KMc_ISXuQFN-_KLATee0-127" value="・データの取得、データベース&lt;br&gt;　へのデータ挿入、デーブルのス&lt;br&gt;　キーマを作り替えることができる" style="shape=callout;whiteSpace=wrap;html=1;perimeter=calloutPerimeter;labelBackgroundColor=#ffffff;strokeColor=#000000;strokeWidth=3;fillColor=#ffffff;gradientColor=none;fontSize=19;direction=west;base=45;size=18;position=0.74;position2=0.73;align=left;" vertex="1" parent="1">
          <mxGeometry x="1063" y="435" width="311" height="125" as="geometry" />
        </mxCell>
        <mxCell id="KMc_ISXuQFN-_KLATee0-129" value="・mysqlのディレクトリと&lt;br&gt;　Masterのディレクトリをマ&lt;br&gt;　ウントすると永続的なコン&lt;br&gt;　テナができる&lt;br&gt;　永続的：コンテナが消えて&lt;br&gt;　もデータがMasterに残って&lt;br&gt;　いるので再びコンテナを立&lt;br&gt;　て直しても初期状態からで&lt;br&gt;　はなく、前のコンテナのデ&lt;br&gt;　ータを引き継いで稼働する" style="shape=callout;whiteSpace=wrap;html=1;perimeter=calloutPerimeter;labelBackgroundColor=#ffffff;strokeColor=#000000;strokeWidth=3;fillColor=#ffffff;gradientColor=none;fontSize=16;direction=west;align=left;base=30;size=14;position=0.53;" vertex="1" parent="1">
          <mxGeometry x="851" y="740" width="226" height="224" as="geometry" />
        </mxCell>
        <mxCell id="KMc_ISXuQFN-_KLATee0-130" value="・Worker-serverのどちらか&lt;br&gt;　が落ちても、生き残ってい&lt;br&gt;　るサーバがコンテナを引き&lt;br&gt;　継いでくれる" style="shape=callout;whiteSpace=wrap;html=1;perimeter=calloutPerimeter;labelBackgroundColor=#ffffff;strokeColor=#000000;strokeWidth=3;fillColor=#ffffff;gradientColor=none;fontSize=16;direction=west;align=left;position2=0.65;base=59;size=25;position=0.64;" vertex="1" parent="1">
          <mxGeometry x="613" y="803" width="221" height="130" as="geometry" />
        </mxCell>
        <mxCell id="KMc_ISXuQFN-_KLATee0-131" value="ユーザ" style="text;html=1;fontSize=24;fontStyle=1;verticalAlign=middle;align=center;labelBackgroundColor=#ffffff;labelBorderColor=#000000;" vertex="1" parent="1">
          <mxGeometry x="31.289999999999942" y="534.29" width="100" height="40" as="geometry" />
        </mxCell>
        <mxCell id="KMc_ISXuQFN-_KLATee0-132" value="エンジニア" style="text;html=1;fontSize=24;fontStyle=1;verticalAlign=middle;align=center;labelBackgroundColor=#ffffff;labelBorderColor=#000000;" vertex="1" parent="1">
          <mxGeometry x="24" y="694" width="116" height="40" as="geometry" />
        </mxCell>
        <mxCell id="KMc_ISXuQFN-_KLATee0-135" value="・リバースプロキシとし&lt;br&gt;　て稼働している" style="shape=callout;whiteSpace=wrap;html=1;perimeter=calloutPerimeter;labelBackgroundColor=#ffffff;strokeColor=#000000;strokeWidth=3;fillColor=#ffffff;gradientColor=none;fontSize=16;align=left;" vertex="1" parent="1">
          <mxGeometry x="752" y="72" width="188" height="109" as="geometry" />
        </mxCell>
        <mxCell id="KMc_ISXuQFN-_KLATee0-136" value="・GoogleのOauthを使&lt;br&gt;　用して、ユーザを認&lt;br&gt;　証しサーバへ認可を&lt;br&gt;　する。&lt;br&gt;・Googleのアカウント&lt;br&gt;　と紐づいたアカウン&lt;br&gt;　トを作ることができる" style="shape=callout;whiteSpace=wrap;html=1;perimeter=calloutPerimeter;labelBackgroundColor=#ffffff;strokeColor=#000000;strokeWidth=3;fillColor=#ffffff;gradientColor=none;fontSize=16;direction=north;size=23;position=0.33;position2=0.42;base=42;align=left;" vertex="1" parent="1">
          <mxGeometry x="19" y="10.5" width="208" height="172.5" as="geometry" />
        </mxCell>
        <mxCell id="KMc_ISXuQFN-_KLATee0-139" value="docker-compose" style="text;html=1;fontSize=24;fontStyle=1;verticalAlign=middle;align=center;labelBackgroundColor=#ffffff;labelBorderColor=#000000;" vertex="1" parent="1">
          <mxGeometry x="996" y="110.21000000000001" width="100" height="40" as="geometry" />
        </mxCell>
        <mxCell id="KMc_ISXuQFN-_KLATee0-146" value="" style="group" vertex="1" connectable="0" parent="1">
          <mxGeometry x="31.29" y="217" width="102" height="181.59" as="geometry" />
        </mxCell>
        <mxCell id="KMc_ISXuQFN-_KLATee0-141" value="" style="endArrow=classic;startArrow=classic;html=1;dashed=1;strokeWidth=3;fillColor=#f8cecc;strokeColor=#FF6666;" edge="1" parent="KMc_ISXuQFN-_KLATee0-146">
          <mxGeometry width="50" height="50" relative="1" as="geometry">
            <mxPoint y="61.59000000000014" as="sourcePoint" />
            <mxPoint x="102" y="61.59000000000014" as="targetPoint" />
          </mxGeometry>
        </mxCell>
        <mxCell id="KMc_ISXuQFN-_KLATee0-142" value="" style="endArrow=classic;startArrow=classic;html=1;strokeWidth=3;fillColor=#fff2cc;strokeColor=#d6b656;" edge="1" parent="KMc_ISXuQFN-_KLATee0-146">
          <mxGeometry width="50" height="50" relative="1" as="geometry">
            <mxPoint y="125.58999999999992" as="sourcePoint" />
            <mxPoint x="102" y="125.58999999999992" as="targetPoint" />
          </mxGeometry>
        </mxCell>
        <mxCell id="KMc_ISXuQFN-_KLATee0-143" value="" style="endArrow=classic;startArrow=classic;html=1;strokeWidth=3;fillColor=#fff2cc;" edge="1" parent="KMc_ISXuQFN-_KLATee0-146">
          <mxGeometry width="50" height="50" relative="1" as="geometry">
            <mxPoint y="181.59" as="sourcePoint" />
            <mxPoint x="102" y="181.59" as="targetPoint" />
          </mxGeometry>
        </mxCell>
        <mxCell id="KMc_ISXuQFN-_KLATee0-145" value="" style="endArrow=classic;startArrow=classic;html=1;dashed=1;strokeColor=#82b366;strokeWidth=3;fillColor=#d5e8d4;" edge="1" parent="KMc_ISXuQFN-_KLATee0-146">
          <mxGeometry width="50" height="50" relative="1" as="geometry">
            <mxPoint as="sourcePoint" />
            <mxPoint x="102" as="targetPoint" />
          </mxGeometry>
        </mxCell>
        <mxCell id="KMc_ISXuQFN-_KLATee0-147" value="Oauth" style="text;html=1;fontSize=24;fontStyle=1;verticalAlign=middle;align=left;labelBackgroundColor=#ffffff;" vertex="1" parent="1">
          <mxGeometry x="140" y="198" width="100" height="40" as="geometry" />
        </mxCell>
        <mxCell id="KMc_ISXuQFN-_KLATee0-148" value="開発の流れ" style="text;html=1;fontSize=24;fontStyle=1;verticalAlign=middle;align=left;labelBackgroundColor=#ffffff;" vertex="1" parent="1">
          <mxGeometry x="145" y="258.5" width="100" height="40" as="geometry" />
        </mxCell>
        <mxCell id="KMc_ISXuQFN-_KLATee0-149" value="databaseと&lt;br style=&quot;font-size: 21px;&quot;&gt;webのセッション" style="text;html=1;fontSize=21;fontStyle=1;verticalAlign=middle;align=left;labelBackgroundColor=#ffffff;" vertex="1" parent="1">
          <mxGeometry x="145" y="324" width="100" height="40" as="geometry" />
        </mxCell>
        <mxCell id="KMc_ISXuQFN-_KLATee0-150" value="ユーザと&lt;br style=&quot;font-size: 21px&quot;&gt;webのセッション" style="text;html=1;fontSize=21;fontStyle=1;verticalAlign=middle;align=left;labelBackgroundColor=#ffffff;" vertex="1" parent="1">
          <mxGeometry x="145" y="379" width="100" height="40" as="geometry" />
        </mxCell>
      </root>
    </mxGraphModel>
  </diagram>
</mxfile>
